<svg id="Capa_1" data-name="Capa 1" xmlns="http://www.w3.org/2000/svg" xmlns:xlink="http://www.w3.org/1999/xlink" viewBox="0 0 498.84 962.76"><defs><style>.cls-1{fill:#fff;stroke:#fff;stroke-miterlimit:10;}</style></defs><title>Mesa de trabajo 1</title><image width="360" height="2527" transform="translate(33.72 31.36) scale(1.22 1.07)" xlink:href="../../../landing_page/res/img/page.jpg"/><path d="M-1.16,483.19q0-137.73,0-275.45c0-45.83-.5-91.66.29-137.47C-.42,44.57,12.36,25,34.54,12A84.57,84.57,0,0,1,79.21.08C135.37.57,191.53.13,247.7.15,306.85.18,366,.08,425.17.53c32.46.25,56.67,18.36,67.52,49a107.3,107.3,0,0,1,6.13,36.27q-.35,366.23-.73,732.45c0,27.16.13,54.33-.87,81.45-1,27.87-15.89,46.51-41.65,56.57-13.84,5.4-28.28,7-43.1,7q-116.24-.44-232.48-.54-53-.12-106-.34c-17.19-.09-33.55-3.37-47.14-14.75-17.2-14.4-25-33.56-25.16-55.46-.61-68.48-.8-137-.94-205.46C.64,618.83.75,551,.75,483.19ZM33.4,484h.42v412c0,16.1,9.48,30.28,24.87,34.85,7.14,2.13,15.06,2.22,22.63,2.27,46.66.31,93.33.35,140,.46q101.73.22,203.47.4c25.19,0,42.39-17.16,42.64-42.27.1-9,.41-18,.4-27q-.18-393-.42-785.95a45.13,45.13,0,0,0-.49-6.47C464,52.51,451,37.63,433.77,36c-13.22-1.22-26.6-.57-39.92-.78-7.51-.12-282-3.34-295.2-2.09-9.4.89-19,.17-28.44.17-18.21,0-34.55,14.6-36,32.68-.71,8.62-.75,17.31-.75,26Q33.36,288,33.4,484Z"/><circle class="cls-1" cx="333.67" cy="19.81" r="2.61"/></svg>