<svg xmlns="http://www.w3.org/2000/svg" viewBox="0 0 145.22 42.62"><defs><style>.cls-1{fill:#2a347c;stroke:#2a347c;stroke-miterlimit:10;stroke-width:0.5px;}.cls-2{font-size:10px;fill:#f7f7f8;font-family:Montserrat-Regular, Montserrat;}.cls-3{letter-spacing:-0.01em;}.cls-4{fill:#2196f3;}.cls-5{fill:#4caf50;}.cls-6{fill:#ffc107;}.cls-7{fill:#f44336;}</style></defs><title>Recurso 3</title><g id="Capa_2" data-name="Capa 2"><g id="descarga"><rect class="cls-1" x="0.25" y="0.25" width="144.72" height="42.12" rx="5.22"/><text class="cls-2" transform="translate(59.29 17.45) scale(0.92 1)">Disponible en <tspan x="0" y="12">Google Pl</tspan><tspan class="cls-3" x="48.35" y="12">a</tspan><tspan x="54.15" y="12">y </tspan></text><path class="cls-4" d="M29.52,21.31,15.58,34.74a2.38,2.38,0,0,1-1-2V9.86a2.35,2.35,0,0,1,1-2Z"/><path class="cls-5" d="M34.4,16.62l-4.88,4.69L15.58,7.89a1.67,1.67,0,0,1,.16-.12,2.41,2.41,0,0,1,2.41,0Z"/><path class="cls-6" d="M40.32,21.31a2.43,2.43,0,0,1-1.27,2.15L34.4,26l-4.88-4.69,4.88-4.69,4.65,2.55A2.43,2.43,0,0,1,40.32,21.31Z"/><path class="cls-7" d="M34.4,26,18.15,34.89a2.41,2.41,0,0,1-2.41,0l-.16-.11L29.52,21.31Z"/></g></g></svg>