<svg xmlns="http://www.w3.org/2000/svg" viewBox="0 0 145.22 42.62"><defs><style>.cls-1{fill:#2a347c;stroke:#2a347c;stroke-miterlimit:10;stroke-width:0.5px;}.cls-2{font-size:10px;font-family:Montserrat-Regular, Montserrat;}.cls-2,.cls-5{fill:#f7f7f8;}.cls-3{letter-spacing:-0.02em;}.cls-4{letter-spacing:-0.01em;}</style></defs><title>Recurso 5</title><g id="Capa_2" data-name="Capa 2"><g id="descarga"><rect class="cls-1" x="0.25" y="0.25" width="144.72" height="42.12" rx="5.22"/><text class="cls-2" transform="translate(59.29 17.45) scale(0.92 1)">Disponible en <tspan x="0" y="12">App S</tspan><tspan class="cls-3" x="29.5" y="12">t</tspan><tspan x="33.37" y="12">o</tspan><tspan class="cls-4" x="39.64" y="12">r</tspan><tspan x="43.52" y="12">e</tspan></text><path class="cls-5" d="M29.63,12.42A5.42,5.42,0,0,1,25.81,14a5.52,5.52,0,0,1-1.39-.18.32.32,0,0,1-.21-.21A5.39,5.39,0,0,1,30.81,7a.32.32,0,0,1,.21.21A5.42,5.42,0,0,1,29.63,12.42Z"/><path class="cls-5" d="M36.21,27.11a21.75,21.75,0,0,1-3.64,6.76,4.94,4.94,0,0,1-3.93,1.92,5,5,0,0,1-2.55-.7l-.66-.39a.87.87,0,0,0-.88,0l-.65.39a5,5,0,0,1-6.49-1.22c-2.28-2.94-5.77-8.77-3.55-14.64,2.08-5.54,6.6-5.1,9.11-4.35a7,7,0,0,0,4,0c2-.6,4.82-.89,7,1.1a.31.31,0,0,1,.09.28.32.32,0,0,1-.19.22,5.28,5.28,0,0,0,1.77,10.26h.21a.3.3,0,0,1,.24.12A.27.27,0,0,1,36.21,27.11Z"/></g></g></svg>