<svg xmlns="http://www.w3.org/2000/svg" viewBox="0 0 87.09 62.03"><defs><style>.cls-1{fill:#fff;}.cls-2{fill:#ea5455;}</style></defs><title>Recurso 2</title><g id="Capa_2" data-name="Capa 2"><g id="login"><g id="v2"><g id="Page-1"><path class="cls-1" d="M30.75,13.58c-.17-.07-.35-.15-.53-.21C27.05,12.25,25.37,7.44,26,3.88,26.23,2.43,27.06,0,29.86,0a6.81,6.81,0,0,1,2.91,1,14.41,14.41,0,0,0-2.38,6.89c-.06.66-.1,1.32-.1,2A14.89,14.89,0,0,0,30.75,13.58Z"/><path class="cls-1" d="M87.09,62c-7.7-.67-18.56-5.14-26.6-16.1-2.43-3.3-4.36-6-5.91-8.07l1.66-1.49,6,8.24c8.28,11.3,18.74,14.23,23.34,15Z"/><path class="cls-1" d="M52.17,36.6a1.07,1.07,0,0,1-.76-.37l-1.48-1.65A1.12,1.12,0,0,1,50,33l9.12-8.16a1.12,1.12,0,0,1,.8-.28,1.11,1.11,0,0,1,.76.37l1.48,1.65a1.1,1.1,0,0,1-.08,1.57L53,36.32A1.09,1.09,0,0,1,52.17,36.6Z"/><path class="cls-1" d="M84,57A34.78,34.78,0,0,1,64.07,43.3L57.9,34.88l5.53-5A193.3,193.3,0,0,1,84,57Z"/><path class="cls-1" d="M49.69,30.33l7.94-7.12A193.67,193.67,0,0,0,38.26,4.69s0,0,0,0c-1.26-1-2.44-1.85-3.53-2.56a11.8,11.8,0,0,0-2.09,6c-.36,3.51.42,6.07,1.31,7h0A47.89,47.89,0,0,1,49.69,30.33ZM35.84,10a1.11,1.11,0,1,1,1.1,1.11A1.11,1.11,0,0,1,35.84,10ZM51.36,23.29a1.11,1.11,0,1,1-1.11-1.11A1.11,1.11,0,0,1,51.36,23.29Z"/></g><g id="Page-1-2" data-name="Page-1"><path class="cls-2" d="M56.33,13.58l.53-.21c3.17-1.12,4.86-5.93,4.25-9.49C60.86,2.43,60,0,57.23,0a6.89,6.89,0,0,0-2.92,1,14.41,14.41,0,0,1,2.38,6.89,18.77,18.77,0,0,1,.11,2A14.46,14.46,0,0,1,56.33,13.58Z"/><path class="cls-2" d="M0,62c7.69-.67,18.56-5.14,26.6-16.1l5.91-8.07-1.66-1.49-6,8.24c-8.29,11.3-18.74,14.23-23.35,15C1,60.45.45,61.26,0,62Z"/><path class="cls-2" d="M34.91,36.6a1.09,1.09,0,0,0,.77-.37l1.48-1.65A1.11,1.11,0,0,0,37.07,33L28,24.85a1.11,1.11,0,0,0-1.57.09l-1.48,1.65A1.11,1.11,0,0,0,25,28.16l9.11,8.16A1.08,1.08,0,0,0,34.91,36.6Z"/><path class="cls-2" d="M3.08,57A34.84,34.84,0,0,0,23,43.3l6.17-8.42-5.53-5A193.37,193.37,0,0,0,3.08,57Z"/><path class="cls-2" d="M53.18,15.09h0c.88-1,1.67-3.52,1.31-7a11.82,11.82,0,0,0-2.1-6c-1.08.71-2.26,1.57-3.52,2.56a.1.1,0,0,1,0,0A195.85,195.85,0,0,0,29.45,23.21l7.94,7.12A48,48,0,0,1,53.18,15.09Zm-3-4A1.11,1.11,0,1,1,51.25,10,1.11,1.11,0,0,1,50.14,11.09ZM36.83,22.18a1.11,1.11,0,1,1-1.11,1.11A1.11,1.11,0,0,1,36.83,22.18Z"/></g></g></g></g></svg>