<svg xmlns="http://www.w3.org/2000/svg" viewBox="0 0 146.09 34.06"><defs><style>.cls-1,.cls-3{fill:#fff;}.cls-2{fill:#ea5455;}.cls-3{font-size:15.59px;font-family:SparTakusRound, SparTakus Round;}.cls-4{letter-spacing:0.06em;}</style></defs><title>Recurso 2</title><g id="Capa_2" data-name="Capa 2"><g id="index"><g id="v2"><g id="Page-1"><path class="cls-1" d="M14.5,8.37l-.25-.09c-1.5-.53-2.29-2.8-2-4.48A1.91,1.91,0,0,1,14.07,2a3.35,3.35,0,0,1,1.38.45,6.67,6.67,0,0,0-1.12,3.25,7.25,7.25,0,0,0-.05.93A6.56,6.56,0,0,0,14.5,8.37Z"/><path class="cls-1" d="M41.05,31.21a18,18,0,0,1-12.54-7.59l-2.79-3.8.79-.7L29.35,23a17.29,17.29,0,0,0,11,7.07Z"/><path class="cls-1" d="M24.59,19.23a.5.5,0,0,1-.36-.18l-.7-.78a.53.53,0,0,1,0-.74l4.3-3.84a.53.53,0,0,1,.38-.14.54.54,0,0,1,.36.18l.69.78a.52.52,0,0,1,.14.37.55.55,0,0,1-.18.37L25,19.09A.53.53,0,0,1,24.59,19.23Z"/><path class="cls-1" d="M39.59,28.84a16.39,16.39,0,0,1-9.39-6.46l-2.91-4,2.61-2.34A91,91,0,0,1,39.59,28.84Z"/><path class="cls-1" d="M23.42,16.27l3.74-3.36A91.87,91.87,0,0,0,18,4.18h0c-.59-.47-1.15-.88-1.66-1.21a5.5,5.5,0,0,0-1,2.82A4.63,4.63,0,0,0,16,9.09h0A22.5,22.5,0,0,1,23.42,16.27ZM16.89,6.68a.52.52,0,0,1,.52-.52.52.52,0,1,1,0,1A.52.52,0,0,1,16.89,6.68ZM24.21,13a.53.53,0,1,1-.52-.52A.52.52,0,0,1,24.21,13Z"/></g><g id="Page-1-2" data-name="Page-1"><path class="cls-2" d="M26.55,8.37l.25-.09c1.49-.53,2.29-2.8,2-4.48A1.91,1.91,0,0,0,27,2a3.36,3.36,0,0,0-1.37.45,6.77,6.77,0,0,1,1.12,3.25c0,.31.05.62.05.93A7,7,0,0,1,26.55,8.37Z"/><path class="cls-2" d="M0,31.21a18,18,0,0,0,12.54-7.59l2.78-3.8-.78-.7L11.69,23a17.25,17.25,0,0,1-11,7.07C.45,30.46.21,30.85,0,31.21Z"/><path class="cls-2" d="M16.46,19.23a.54.54,0,0,0,.36-.18l.69-.78a.51.51,0,0,0,0-.74l-4.29-3.84a.54.54,0,0,0-.38-.14.5.5,0,0,0-.36.18l-.7.78a.51.51,0,0,0-.13.37.58.58,0,0,0,.17.37l4.3,3.84A.53.53,0,0,0,16.46,19.23Z"/><path class="cls-2" d="M1.45,28.84a16.38,16.38,0,0,0,9.4-6.46l2.91-4-2.61-2.34A91.08,91.08,0,0,0,1.45,28.84Z"/><path class="cls-2" d="M25.06,9.09h0a4.62,4.62,0,0,0,.62-3.31,5.51,5.51,0,0,0-1-2.82c-.51.33-1.06.74-1.66,1.21h0a93,93,0,0,0-9.13,8.73l3.74,3.36A22.59,22.59,0,0,1,25.06,9.09ZM23.63,7.2a.52.52,0,1,1,0-1,.52.52,0,1,1,0,1Zm-6.27,5.23a.52.52,0,1,1-.52.52A.52.52,0,0,1,17.36,12.43Z"/></g><text class="cls-3" transform="translate(50.68 13.91)">Razor<tspan class="cls-4"><tspan x="0" y="18.71">store</tspan></tspan></text></g></g></g></svg>